<?xml version="1.0" encoding="UTF-8" standalone="no"?>
<!-- Created with Inkscape (http://www.inkscape.org/) -->

<svg
   width="512"
   height="512"
   viewBox="0 0 512 512"
   version="1.1"
   id="svg5"
   inkscape:version="1.1.1 (c3084ef, 2021-09-22)"
   sodipodi:docname="client-hotdishhoney.svg"
   inkscape:export-filename="/Users/ashwig-personal/source/repos/github.com/ashellwig/ashhellwig-gatsby/src/images/clientLogos/client-hotdishhoney.png"
   inkscape:export-xdpi="96"
   inkscape:export-ydpi="96"
   xmlns:inkscape="http://www.inkscape.org/namespaces/inkscape"
   xmlns:sodipodi="http://sodipodi.sourceforge.net/DTD/sodipodi-0.dtd"
   xmlns="http://www.w3.org/2000/svg"
   xmlns:svg="http://www.w3.org/2000/svg">
  <sodipodi:namedview
     id="namedview7"
     pagecolor="#ffffff"
     bordercolor="#111111"
     borderopacity="1"
     inkscape:pageshadow="0"
     inkscape:pageopacity="0"
     inkscape:pagecheckerboard="1"
     inkscape:document-units="px"
     showgrid="false"
     inkscape:zoom="1.0546875"
     inkscape:cx="221.39259"
     inkscape:cy="284.44444"
     inkscape:window-width="1312"
     inkscape:window-height="762"
     inkscape:window-x="0"
     inkscape:window-y="25"
     inkscape:window-maximized="0"
     inkscape:current-layer="layer1" />
  <defs
     id="defs2" />
  <g
     inkscape:label="Layer 1"
     inkscape:groupmode="layer"
     id="layer1">
    <path
       d="m 263.55173,108.96864 c 0.26758,1.44483 5.38501,29.05018 5.38501,39.59432 0,16.07751 -9.29835,27.54388 -23.04518,32.15502 l 4.3147,73.19417 c 0.23413,4.21151 -3.41163,7.77746 -8.02735,7.77746 h -21.40627 c -4.58228,0 -8.26148,-3.53521 -8.02735,-7.77746 l 4.3147,-73.19417 c -13.78029,-4.61114 -23.04519,-16.10825 -23.04519,-32.15502 0,-10.57488 5.11744,-38.14949 5.38502,-39.59432 1.07031,-6.24041 15.15162,-6.33263 16.02125,0.33815 v 43.4062 c 0.43482,1.04519 5.05054,0.98371 5.35157,0 0.46826,-7.77746 2.64234,-42.79138 2.67578,-43.59064 1.10376,-6.39412 14.95094,-6.39412 16.02126,0 0.0669,0.83 2.20752,35.81318 2.67578,43.59064 0.30103,0.98371 4.9502,1.04519 5.35157,0 v -43.4062 c 0.86963,-6.64004 14.98438,-6.57856 16.0547,-0.33815 z m 39.86917,87.82685 -5.0171,56.90147 c -0.40136,4.30373 3.31129,7.99265 7.99391,7.99265 h 18.73048 c 4.44849,0 8.02735,-3.28928 8.02735,-7.37783 V 111.67384 c 0,-4.0578 -3.57886,-7.37782 -8.02735,-7.37782 -27.59402,0 -74.0523,54.87257 -21.70729,92.49947 z"
       id="path1259"
       style="fill:#ffaaaa;stroke-width:0.320656" />
    <text
       xml:space="preserve"
       style="font-style:normal;font-weight:normal;font-size:40px;line-height:1.25;font-family:sans-serif;fill:#ffaaaa;fill-opacity:1;stroke:none"
       x="116.62222"
       y="327.11108"
       id="text4866"><tspan
         sodipodi:role="line"
         id="tspan4864"
         x="116.62222"
         y="327.11108"
         style="font-style:normal;font-variant:normal;font-weight:normal;font-stretch:normal;font-size:64px;font-family:'Savoye LET';-inkscape-font-specification:'Savoye LET, Normal';font-variant-ligatures:normal;font-variant-caps:normal;font-variant-numeric:normal;font-variant-east-asian:normal;fill:#ffaaaa">Hot Dish Honey</tspan></text>
  </g>
</svg>
